<svg width="48" height="48" viewBox="0 0 48 48" fill="none" xmlns="http://www.w3.org/2000/svg">
  <rect width="48" height="48" rx="12" fill="#0D1525"/>
  <path d="M24 10C16.27 10 10 16.27 10 24C10 31.73 16.27 38 24 38C27.58 38 30.86 36.62 33.3 34.33L30.12 31.15C28.49 32.65 26.35 33.5 24 33.5C18.76 33.5 14.5 29.24 14.5 24C14.5 18.76 18.76 14.5 24 14.5C26.35 14.5 28.49 15.35 30.12 16.85L33.3 13.67C30.86 11.38 27.58 10 24 10Z" fill="#2DD4BF"/>
  <path d="M31.5 21H27V16.5H21V21H16.5V27H21V31.5H27V27H31.5V21Z" fill="#2DD4BF" opacity="0.55"/>
</svg>
