<svg width="96" height="96" viewBox="0 0 96 96" fill="none" xmlns="http://www.w3.org/2000/svg">
  <rect width="96" height="96" rx="22" fill="#0D1525"/>
  <path d="M48 18C31.43 18 18 31.43 18 48C18 64.57 31.43 78 48 78C55.68 78 62.64 75.04 67.8 70.17L62.64 65.01C59.16 68.23 54.8 70.2 48 70.2C35.72 70.2 25.8 60.28 25.8 48C25.8 35.72 35.72 25.8 48 25.8C54.8 25.8 59.16 27.77 62.64 31L67.8 25.83C62.64 20.96 55.68 18 48 18Z" fill="#2DD4BF"/>
  <path d="M63 42H54V33H42V42H33V54H42V63H54V54H63V42Z" fill="#2DD4BF" opacity="0.55"/>
</svg>
